<svg xmlns="http://www.w3.org/2000/svg" xmlns:xlink="http://www.w3.org/1999/xlink" width="500" zoomAndPan="magnify" viewBox="0 0 375 374.999991" height="500" preserveAspectRatio="xMidYMid meet" version="1.0"><defs><g/><clipPath id="a71519339b"><path d="M 68.410156 68.410156 L 306.402344 68.410156 L 306.402344 306.402344 L 68.410156 306.402344 Z M 68.410156 68.410156 " clip-rule="nonzero"/></clipPath><clipPath id="9041d9cc48"><path d="M 169 170 L 253.875 170 L 253.875 205.925781 L 169 205.925781 Z M 169 170 " clip-rule="nonzero"/></clipPath><clipPath id="a91f92478e"><path d="M 121.136719 167 L 199 167 L 199 198 L 121.136719 198 Z M 121.136719 167 " clip-rule="nonzero"/></clipPath><clipPath id="12a9587bd3"><path d="M 121.136719 199 L 146 199 L 146 202 L 121.136719 202 Z M 121.136719 199 " clip-rule="nonzero"/></clipPath><clipPath id="afc9b95623"><path d="M 121.136719 189 L 158 189 L 158 194 L 121.136719 194 Z M 121.136719 189 " clip-rule="nonzero"/></clipPath><clipPath id="5bc57e87a7"><path d="M 121.136719 192 L 151 192 L 151 196 L 121.136719 196 Z M 121.136719 192 " clip-rule="nonzero"/></clipPath><clipPath id="59909f6de9"><path d="M 121.136719 196 L 147 196 L 147 199 L 121.136719 199 Z M 121.136719 196 " clip-rule="nonzero"/></clipPath><clipPath id="528850f9f4"><path d="M 121.148438 194.519531 L 252.789062 194.519531 L 252.789062 258.882812 L 121.148438 258.882812 Z M 121.148438 194.519531 " clip-rule="nonzero"/></clipPath><clipPath id="9072476786"><path d="M 156 219 L 204 219 L 204 258.882812 L 156 258.882812 Z M 156 219 " clip-rule="nonzero"/></clipPath><clipPath id="1706262ebb"><path d="M 133.460938 207.386719 L 228.746094 207.386719 L 228.746094 258.882812 L 133.460938 258.882812 Z M 133.460938 207.386719 " clip-rule="nonzero"/></clipPath><clipPath id="7fbae9b21d"><path d="M 123 124.632812 L 253.886719 124.632812 L 253.886719 178 L 123 178 Z M 123 124.632812 " clip-rule="nonzero"/></clipPath><clipPath id="388d95a3e9"><path d="M 97.984375 183.070312 L 106.984375 183.070312 L 106.984375 192.070312 L 97.984375 192.070312 Z M 97.984375 183.070312 " clip-rule="nonzero"/></clipPath><clipPath id="3d97fcf558"><path d="M 268.171875 183.070312 L 277.171875 183.070312 L 277.171875 192.070312 L 268.171875 192.070312 Z M 268.171875 183.070312 " clip-rule="nonzero"/></clipPath></defs><g clip-path="url(#a71519339b)"><path fill="#1e453e" d="M 187.40625 306.402344 C 155.632812 306.402344 125.71875 294.035156 103.269531 271.539062 C 80.773438 249.089844 68.410156 219.175781 68.410156 187.40625 C 68.410156 155.632812 80.773438 125.71875 103.269531 103.269531 C 125.71875 80.773438 155.632812 68.410156 187.40625 68.410156 C 219.175781 68.410156 249.089844 80.773438 271.539062 103.269531 C 294.035156 125.765625 306.402344 155.632812 306.402344 187.40625 C 306.402344 219.175781 294.035156 249.089844 271.539062 271.539062 C 249.089844 294.035156 219.175781 306.402344 187.40625 306.402344 Z M 187.40625 75.542969 C 157.535156 75.542969 129.429688 87.195312 108.3125 108.3125 C 87.195312 129.429688 75.542969 157.535156 75.542969 187.40625 C 75.542969 217.273438 87.195312 245.378906 108.3125 266.496094 C 129.429688 287.613281 157.535156 299.265625 187.40625 299.265625 C 217.273438 299.265625 245.378906 287.613281 266.496094 266.496094 C 287.613281 245.378906 299.265625 217.273438 299.265625 187.40625 C 299.265625 157.535156 287.613281 129.429688 266.496094 108.3125 C 245.378906 87.195312 217.273438 75.542969 187.40625 75.542969 Z M 187.40625 75.542969 " fill-opacity="1" fill-rule="nonzero"/></g><path fill="#242424" d="M 228.738281 182.175781 L 217.164062 167.546875 L 192.234375 167.449219 L 204.277344 182.175781 L 228.738281 182.175781 " fill-opacity="1" fill-rule="nonzero"/><g clip-path="url(#9041d9cc48)"><path fill="#242424" d="M 230.515625 182.632812 L 228.222656 183.417969 L 226.824219 191.496094 L 226.824219 183.234375 L 219.554688 183.234375 L 219.554688 188.160156 L 222.945312 188.160156 L 222.945312 189.085938 L 218.078125 189.085938 L 218.078125 183.234375 L 207.992188 183.234375 L 207.992188 188.160156 L 211.359375 188.160156 L 211.359375 189.085938 L 206.539062 189.085938 L 206.539062 183.234375 L 203.707031 183.234375 L 201.585938 181.488281 L 201.585938 194.183594 C 199.398438 194.445312 197.289062 194.753906 195.269531 195.09375 L 195.269531 183.964844 L 197.980469 183.964844 L 199.195312 188.609375 L 199.195312 182.242188 L 192.953125 182.242188 L 192.953125 195.503906 C 187.132812 196.585938 182.152344 197.894531 178.230469 199.09375 C 175.253906 197.851562 172.246094 196.742188 169.183594 195.746094 C 169.457031 196.476562 169.574219 197.402344 169.628906 198.125 C 171.332031 198.824219 172.921875 199.5625 174.425781 200.328125 C 172.585938 200.960938 171.136719 201.515625 170.132812 201.917969 C 170.691406 202.253906 171.292969 202.777344 171.773438 203.605469 C 172.210938 204.371094 172.386719 205.121094 172.40625 205.796875 C 193.871094 195.375 218.332031 190.589844 253.875 197.25 C 253.875 197.25 251.5625 195.996094 244.570312 194.878906 C 246.667969 193.664062 247.3125 190.199219 244.800781 189.085938 C 244.800781 189.085938 245.765625 189.085938 246.550781 187.941406 C 247.339844 186.796875 245.644531 185.109375 245.644531 185.109375 C 245.644531 185.109375 246.550781 184.988281 246.921875 183.539062 C 247.285156 182.089844 244.257812 181.730469 244.257812 181.730469 C 244.257812 181.730469 246.496094 180.332031 245.589844 178.230469 C 244.683594 176.113281 241.589844 176.660156 241.589844 176.660156 C 241.589844 176.660156 242.441406 175.570312 241.589844 174.304688 C 240.75 173.03125 239.054688 174.121094 239.054688 174.121094 C 239.054688 174.121094 239.839844 171.285156 236.988281 170.433594 C 234.148438 169.597656 232.398438 171.765625 232.398438 171.765625 C 232.398438 171.765625 232.453125 170.5 230.757812 170.378906 C 229.0625 170.261719 229.0625 173.148438 229.0625 173.148438 C 229.0625 173.148438 227.851562 171.765625 226.519531 172.910156 C 225.195312 174.054688 225.917969 176.289062 225.917969 176.289062 L 230.515625 182.632812 " fill-opacity="1" fill-rule="nonzero"/></g><g clip-path="url(#a91f92478e)"><path fill="#242424" d="M 178.953125 197.394531 C 180.296875 196.925781 181.652344 196.464844 183.007812 196 C 183.007812 196 182.796875 195.867188 182.375 195.636719 L 182.375 184.714844 L 182.429688 182.785156 L 191.621094 171.546875 L 198.507812 177.226562 L 191.152344 168.777344 L 179.976562 182.230469 L 179.257812 181.488281 L 183.214844 176.386719 C 183.214844 176.386719 183.730469 175.210938 183.007812 174.511719 C 182.277344 173.8125 181.367188 174.578125 181.367188 174.578125 C 181.367188 174.578125 182.800781 173.402344 180.976562 172.550781 C 179.160156 171.699219 178.101562 173.519531 178.101562 173.519531 C 178.101562 173.519531 177.257812 169.378906 175.019531 170.261719 C 172.777344 171.132812 173.140625 173.8125 173.140625 173.8125 C 173.140625 173.8125 170.296875 172.734375 169.71875 174.578125 C 169.148438 176.410156 171.355469 178.128906 171.355469 178.128906 C 169.382812 177.515625 168.15625 177.941406 167.421875 179.042969 L 167.421875 177.53125 L 168.875 176.746094 L 161.585938 167.449219 L 143.664062 167.449219 L 138.285156 175.15625 L 144.011719 168.855469 L 144.660156 168.863281 L 141.410156 174.839844 L 146.777344 168.894531 L 147.664062 168.90625 L 144.4375 174.839844 L 149.765625 168.9375 L 150.90625 168.953125 L 147.707031 174.839844 L 152.992188 168.984375 L 154.214844 169 L 151.039062 174.839844 L 156.28125 169.03125 L 157.152344 169.046875 L 154 174.839844 L 159.207031 169.074219 L 160.078125 169.085938 L 154.382812 176.265625 L 137.707031 176.265625 L 137.824219 177.445312 L 153.925781 177.445312 L 153.925781 187.527344 C 148.304688 186.761719 142.914062 186.503906 138.191406 186.5 L 138.175781 186.285156 L 138.175781 178.589844 C 138.175781 178.589844 137.015625 178.25 136.65625 178.285156 C 136.285156 178.316406 137.015625 174.871094 133.5625 174.75 C 130.097656 174.632812 131.792969 178.25 131.792969 178.25 C 131.792969 178.25 128.457031 177.226562 127.574219 179.1875 C 126.691406 181.152344 129.378906 182.6875 129.378906 182.6875 C 129.378906 182.6875 126.734375 183.113281 127.574219 185.074219 C 128 186.066406 128.566406 186.5625 129.027344 186.816406 C 124.300781 187.144531 121.386719 187.613281 121.386719 187.613281 C 143.148438 186.992188 167.160156 191.179688 178.953125 197.394531 " fill-opacity="1" fill-rule="nonzero"/></g><g clip-path="url(#12a9587bd3)"><path fill="#242424" d="M 121.550781 200.25 C 130.570312 200.378906 138.613281 200.914062 145.761719 201.828125 C 145.71875 201.425781 145.707031 200.957031 145.75 200.566406 C 137.859375 199.835938 129.78125 199.757812 121.550781 200.25 " fill-opacity="1" fill-rule="nonzero"/></g><g clip-path="url(#afc9b95623)"><path fill="#242424" d="M 157.171875 192.5625 C 145.652344 190.199219 133.628906 189.152344 121.203125 189.839844 C 134.121094 190.296875 145.390625 191.550781 154.734375 193.597656 C 155.292969 193.261719 156.15625 192.824219 157.171875 192.5625 " fill-opacity="1" fill-rule="nonzero"/></g><g clip-path="url(#5bc57e87a7)"><path fill="#242424" d="M 150.679688 194.515625 C 141.269531 192.878906 131.5 192.292969 121.441406 192.585938 C 132.1875 193.085938 141.476562 194.15625 149.445312 195.738281 C 149.761719 195.363281 150.207031 194.886719 150.679688 194.515625 " fill-opacity="1" fill-rule="nonzero"/></g><g clip-path="url(#59909f6de9)"><path fill="#242424" d="M 146.535156 197.460938 C 138.328125 196.359375 129.902344 196.03125 121.28125 196.335938 C 130.589844 196.707031 138.820312 197.503906 146.066406 198.703125 C 146.210938 198.265625 146.351562 197.828125 146.535156 197.460938 " fill-opacity="1" fill-rule="nonzero"/></g><path fill="#242424" d="M 219.632812 212.480469 C 220.15625 213.996094 219.90625 215.324219 219.90625 215.324219 C 227.675781 213.230469 238.058594 211.824219 250.375 212.042969 C 243.066406 210.167969 232.671875 209.742188 219.632812 212.480469 " fill-opacity="1" fill-rule="nonzero"/><path fill="#242424" d="M 222.648438 218.015625 C 222.769531 218.484375 222.738281 218.800781 222.738281 218.800781 C 222.738281 218.800781 223.925781 219.105469 224.878906 219.847656 C 231.03125 218.34375 238.527344 217.265625 247.097656 217.027344 C 241.152344 215.773438 232.902344 215.71875 222.648438 218.015625 " fill-opacity="1" fill-rule="nonzero"/><path fill="#242424" d="M 250.125 207.652344 C 241.886719 205.230469 229.742188 204.5 214.320312 207.933594 C 214.679688 208.664062 214.78125 209.328125 214.78125 209.328125 C 214.78125 209.328125 216.355469 209.570312 217.6875 210.265625 C 225.644531 208.171875 236.738281 206.910156 250.125 207.652344 " fill-opacity="1" fill-rule="nonzero"/><path fill="#242424" d="M 225.042969 230.039062 C 229.960938 228.917969 235.6875 228.132812 242.082031 227.9375 C 237.65625 226.902344 231.820312 226.683594 224.726562 227.949219 C 224.855469 228.535156 225.019531 229.363281 225.042969 230.039062 " fill-opacity="1" fill-rule="nonzero"/><path fill="#242424" d="M 225.808594 222.855469 C 225.664062 223.664062 225.425781 224.546875 225.183594 225.300781 C 230.726562 223.785156 237.492188 222.683594 245.230469 222.441406 C 240.386719 221.308594 233.839844 221.15625 225.808594 222.855469 " fill-opacity="1" fill-rule="nonzero"/><g clip-path="url(#528850f9f4)"><path fill="#242424" d="M 252.539062 200.882812 C 231.488281 194.21875 202.882812 195.332031 173.523438 208.785156 C 172.59375 208.523438 171.664062 208.269531 170.730469 208.023438 C 171.925781 205.898438 170.757812 204.070312 168.40625 204.347656 C 170.011719 202.832031 169.195312 200.890625 167.269531 201.273438 C 170.242188 197.511719 165.390625 194.21875 163.105469 196.585938 C 161.621094 194.382812 159.542969 195.203125 159.652344 196.585938 C 159.652344 196.585938 158.21875 194.242188 156.199219 194.832031 C 154.164062 195.429688 154.308594 196.769531 154.308594 196.769531 C 153.03125 193.761719 150.460938 196.367188 151.0625 197.316406 C 148.417969 196.902344 146.710938 199.5625 148.144531 202.132812 C 148.144531 202.132812 147.0625 202.082031 147.0625 203.105469 C 147.0625 203.382812 147.152344 203.613281 147.277344 203.800781 C 138.679688 202.90625 129.96875 202.683594 121.148438 203.070312 C 121.355469 204.292969 121.597656 205.503906 121.871094 206.703125 L 121.871094 206.714844 C 121.890625 206.8125 121.925781 206.910156 121.945312 207.007812 C 122 207.269531 122.066406 207.53125 122.132812 207.792969 C 129.332031 237.113281 155.871094 258.882812 187.488281 258.882812 C 205.097656 258.882812 221.117188 252.136719 233.109375 241.105469 C 232.199219 240.15625 231.140625 239.132812 230.277344 238.554688 C 228.625 237.222656 226.96875 235.9375 225.304688 234.6875 C 229.527344 233.890625 234.25 233.351562 239.414062 233.191406 C 235.199219 232.195312 229.703125 231.957031 223.054688 233.03125 C 217.488281 228.996094 211.851562 225.402344 206.136719 222.234375 C 206.804688 222.484375 207.503906 222.75 208.246094 223.042969 C 213.554688 225.136719 218.398438 228.308594 221.03125 230.195312 C 221.285156 229.941406 221.554688 229.617188 221.808594 229.191406 C 222.691406 227.730469 221.207031 227.804688 221.207031 227.804688 C 221.207031 227.804688 225.4375 225.332031 223.808594 221.886719 C 222.328125 218.785156 219.371094 219.714844 218.816406 219.921875 C 218.761719 219.945312 218.726562 219.957031 218.726562 219.957031 C 218.726562 219.957031 218.757812 219.941406 218.816406 219.921875 C 219.15625 219.777344 220.335938 219.171875 220.234375 217.722656 C 220.113281 216.035156 216.726562 215.859375 216.726562 215.859375 C 216.726562 215.859375 218.78125 215.617188 217.9375 213.015625 C 217.085938 210.417969 213.269531 211.628906 213.269531 211.628906 C 213.269531 211.628906 213.9375 208.433594 210.125 206.921875 C 206.308594 205.417969 204.988281 209.21875 204.988281 209.21875 C 204.988281 209.21875 204.988281 207.769531 203.105469 207.824219 C 201.226562 207.890625 200.679688 210.300781 200.679688 210.300781 C 200.679688 210.300781 199.292969 207.890625 197.597656 208.792969 C 195.90625 209.699219 196.265625 211.574219 196.265625 211.574219 C 196.265625 211.574219 193.90625 211.324219 192.703125 213.558594 C 192.371094 214.171875 192.265625 214.816406 192.28125 215.425781 C 191.277344 214.996094 190.273438 214.574219 189.265625 214.167969 C 190.058594 213.652344 190.875 213.152344 191.71875 212.675781 C 191.96875 212.078125 192.308594 211.511719 192.8125 211.171875 C 194.265625 210.167969 194.867188 210.148438 194.867188 210.148438 C 194.867188 210.148438 194.714844 208.578125 196.472656 207.671875 C 198.222656 206.757812 199.914062 207.847656 199.914062 207.847656 C 199.914062 207.847656 200.976562 206.460938 202.375 206.246094 C 203.761719 206.039062 204.308594 206.515625 204.308594 206.515625 C 204.308594 206.515625 206.210938 205.066406 208.210938 205.253906 C 209.074219 205.328125 209.871094 205.40625 210.605469 205.546875 C 223.5 202.496094 238.125 202.003906 251.152344 204.457031 C 229.226562 196.09375 199.722656 204.144531 184 212.148438 C 182.648438 211.660156 181.296875 211.191406 179.941406 210.746094 C 201.296875 198.5625 230.472656 195.28125 252.539062 200.882812 " fill-opacity="1" fill-rule="nonzero"/></g><path fill="#242424" d="M 185.28125 182.152344 L 185.28125 189.195312 L 189.847656 189.195312 L 189.847656 182.152344 L 185.28125 182.152344 " fill-opacity="1" fill-rule="nonzero"/><path fill="#242424" d="M 140.066406 178.164062 L 140.066406 183.375 L 143.445312 183.375 L 143.445312 178.164062 L 140.066406 178.164062 " fill-opacity="1" fill-rule="nonzero"/><path fill="#242424" d="M 148.722656 178.164062 L 148.722656 183.375 L 152.097656 183.375 L 152.097656 178.164062 L 148.722656 178.164062 " fill-opacity="1" fill-rule="nonzero"/><g clip-path="url(#9072476786)"><path fill="#1e453e" d="M 179.402344 258.394531 C 178.65625 258.308594 177.90625 258.210938 177.160156 258.089844 C 178.667969 249.183594 182.976562 243.242188 190.8125 238.03125 C 190.8125 238.03125 186.351562 239.011719 181.128906 244.800781 C 180.277344 245.75 179.542969 246.773438 178.921875 247.832031 C 178.820312 244.605469 179.3125 239.730469 182.660156 236.679688 C 188.011719 231.808594 193.742188 232.210938 197.578125 231.21875 C 201.414062 230.238281 203.007812 228.953125 203.007812 228.953125 C 203.007812 228.953125 204.351562 237.964844 198.933594 245.246094 C 194.550781 251.15625 184.351562 251.332031 180.636719 251.175781 C 179.980469 253.28125 179.554688 255.648438 179.402344 258.394531 Z M 173.09375 243.929688 C 159.792969 243.65625 154.910156 232.972656 157.609375 219.957031 C 162.679688 225.484375 181.53125 225.308594 176.417969 241.824219 C 173.117188 236.308594 165.203125 229.082031 160.734375 226.921875 C 165.183594 231.023438 172.472656 238.425781 175.105469 243.898438 C 177.039062 247.101562 177.160156 251.515625 177.160156 251.515625 L 173.09375 243.929688 " fill-opacity="1" fill-rule="nonzero"/></g><g clip-path="url(#1706262ebb)"><path fill="#ffffff" d="M 154.109375 215.488281 C 147.550781 214.027344 140.746094 212.960938 133.707031 212.339844 C 140.460938 213.449219 147.171875 214.988281 153.816406 216.949219 Z M 191.585938 229.179688 C 181.117188 223.695312 169.804688 219.3125 157.652344 216.316406 L 158.101562 216.808594 C 159.03125 217.820312 160.777344 218.660156 162.023438 219.226562 C 164.132812 220.175781 166.296875 220.992188 168.40625 221.953125 C 168.625 222.0625 168.855469 222.160156 169.074219 222.269531 C 175.09375 224.699219 181.019531 227.5 186.84375 230.683594 C 188.078125 230.140625 189.378906 229.714844 190.757812 229.375 C 191.03125 229.3125 191.3125 229.246094 191.585938 229.179688 Z M 153.050781 221.253906 C 147.695312 219.707031 142.199219 218.386719 136.523438 217.332031 C 142.035156 218.78125 147.5 220.492188 152.917969 222.464844 C 152.964844 222.0625 153.007812 221.65625 153.050781 221.253906 Z M 182.691406 233.09375 C 181.390625 232.417969 180.078125 231.761719 178.757812 231.121094 C 179.238281 232.308594 179.53125 233.539062 179.652344 234.792969 C 179.871094 234.914062 180.101562 235.042969 180.320312 235.175781 C 180.546875 234.914062 180.800781 234.675781 181.0625 234.433594 C 181.585938 233.953125 182.132812 233.507812 182.691406 233.09375 Z M 167.027344 246 C 168.941406 247.1875 170.820312 248.421875 172.679688 249.726562 L 171.03125 246.644531 C 169.664062 246.53125 168.328125 246.328125 167.027344 246 Z M 156.582031 239.046875 C 152.351562 237.410156 147.957031 235.96875 143.378906 234.75 C 148.515625 236.570312 153.5 238.6875 158.316406 241.128906 C 158.121094 240.929688 157.945312 240.734375 157.761719 240.527344 C 157.335938 240.046875 156.941406 239.558594 156.582031 239.046875 Z M 152.898438 228.339844 C 148.984375 227.042969 144.984375 225.886719 140.875 224.894531 C 144.972656 226.203125 149.015625 227.6875 152.996094 229.34375 C 152.964844 229.015625 152.917969 228.679688 152.898438 228.339844 Z M 201.523438 226.847656 C 181.476562 215.882812 159.019531 208.871094 133.554688 207.433594 C 155.257812 210.265625 176.351562 217.015625 196.550781 228.339844 C 197.0625 228.253906 197.566406 228.15625 198.058594 228.035156 C 198.964844 227.796875 200.363281 227.371094 201.523438 226.847656 Z M 190.222656 258.828125 C 189.316406 258.863281 188.40625 258.882812 187.488281 258.882812 C 186.328125 258.882812 185.183594 258.851562 184.046875 258.785156 C 183.433594 258.242188 182.820312 257.707031 182.210938 257.171875 C 182.332031 256.257812 182.484375 255.363281 182.691406 254.46875 C 183.324219 254.46875 183.96875 254.449219 184.625 254.414062 C 186.539062 255.832031 188.40625 257.304688 190.222656 258.828125 Z M 203.171875 257.042969 C 201.304688 257.488281 199.390625 257.859375 197.46875 258.144531 C 195.664062 256.488281 193.851562 254.875 192.023438 253.324219 C 193.597656 252.910156 195.117188 252.367188 196.550781 251.667969 C 198.800781 253.390625 201.007812 255.1875 203.171875 257.042969 Z M 213.652344 253.621094 C 212.046875 254.292969 210.40625 254.917969 208.734375 255.460938 C 206.089844 253.148438 203.414062 250.9375 200.691406 248.824219 C 201.269531 248.289062 201.796875 247.699219 202.265625 247.058594 C 202.617188 246.597656 202.933594 246.121094 203.25 245.640625 C 206.800781 248.160156 210.265625 250.828125 213.652344 253.621094 Z M 221.554688 249.652344 C 220.199219 250.457031 218.8125 251.199219 217.390625 251.90625 C 213.371094 248.441406 209.25 245.191406 205.0625 242.175781 C 205.632812 240.84375 206.078125 239.46875 206.429688 238.0625 C 211.730469 241.640625 216.769531 245.519531 221.554688 249.652344 Z M 228.496094 244.976562 C 227.273438 245.921875 226.015625 246.816406 224.726562 247.679688 C 218.921875 242.914062 213.03125 238.597656 207.054688 234.695312 C 207.0625 234.542969 207.085938 234.390625 207.105469 234.226562 C 207.238281 232.972656 207.316406 231.535156 207.28125 230.152344 C 214.679688 234.574219 221.753906 239.546875 228.496094 244.976562 " fill-opacity="1" fill-rule="evenodd"/></g><g clip-path="url(#7fbae9b21d)"><path fill="#ead61c" d="M 228.035156 170.171875 L 222.496094 170.164062 L 224.617188 172.398438 C 224.617188 172.398438 225.644531 171.253906 227.097656 171.011719 C 227.675781 170.914062 227.882812 170.578125 228.035156 170.171875 Z M 183.664062 145.746094 L 184.527344 152.035156 C 183.828125 152.1875 183.140625 152.371094 182.460938 152.589844 L 180.84375 146.53125 C 181.761719 146.226562 182.703125 145.960938 183.664062 145.746094 Z M 182.800781 139.433594 L 183.421875 144 C 182.375 144.164062 181.347656 144.394531 180.339844 144.664062 L 179.171875 140.25 C 180.351562 139.925781 181.566406 139.640625 182.800781 139.433594 Z M 175.292969 125.730469 C 177.105469 125.402344 178.953125 125.140625 180.8125 124.957031 L 182.582031 137.851562 C 181.257812 138.003906 179.96875 138.222656 178.703125 138.519531 Z M 177.292969 148.011719 L 179.695312 153.722656 C 179.0625 154.039062 178.4375 154.398438 177.847656 154.78125 L 174.765625 149.441406 C 175.585938 148.929688 176.429688 148.449219 177.292969 148.011719 Z M 174.703125 141.84375 L 176.460938 146.039062 C 175.488281 146.464844 174.539062 146.933594 173.628906 147.46875 L 171.347656 143.5 C 172.429688 142.898438 173.542969 142.34375 174.703125 141.84375 Z M 163.082031 129.1875 C 164.875 128.488281 166.710938 127.867188 168.582031 127.324219 L 173.890625 139.933594 C 172.625 140.402344 171.390625 140.9375 170.199219 141.527344 Z M 171.695312 151.730469 L 175.476562 156.589844 C 174.941406 157.058594 174.441406 157.5625 173.96875 158.09375 L 169.609375 153.734375 C 170.265625 153.027344 170.964844 152.359375 171.695312 151.730469 Z M 167.347656 146.125 L 170.1875 149.800781 C 169.355469 150.464844 168.558594 151.171875 167.804688 151.925781 L 164.449219 148.578125 C 165.367188 147.707031 166.328125 146.890625 167.347656 146.125 Z M 151.136719 135.257812 C 152.863281 134.148438 154.65625 133.121094 156.492188 132.164062 L 165.78125 144.121094 C 164.648438 144.90625 163.554688 145.746094 162.527344 146.648438 Z M 167.191406 156.710938 L 172.144531 160.449219 C 171.75 161.039062 171.390625 161.660156 171.0625 162.292969 L 165.675781 159.175781 C 166.132812 158.324219 166.644531 157.496094 167.191406 156.710938 Z M 161.160156 152.132812 L 165.074219 155.097656 C 164.429688 155.972656 163.847656 156.875 163.3125 157.8125 L 158.929688 155.273438 C 159.609375 154.195312 160.363281 153.136719 161.160156 152.132812 Z M 139.902344 144.285156 C 141.488281 142.714844 143.148438 141.222656 144.875 139.804688 L 158.832031 150.367188 C 157.914062 151.445312 157.0625 152.570312 156.285156 153.746094 Z M 164.101562 162.671875 L 169.914062 165.039062 C 169.695312 165.707031 169.511719 166.390625 169.355469 167.089844 L 163.269531 165.453125 C 163.5 164.503906 163.773438 163.578125 164.101562 162.671875 Z M 156.613281 159.621094 L 161.542969 161.628906 C 161.171875 162.640625 160.855469 163.675781 160.601562 164.746094 L 155.246094 163.304688 C 155.628906 162.042969 156.089844 160.820312 156.613281 159.621094 Z M 130.175781 156.558594 C 131.464844 154.488281 132.863281 152.480469 134.363281 150.5625 L 153.707031 158.433594 C 153.117188 159.742188 152.613281 161.09375 152.210938 162.488281 Z M 123.125 172.113281 C 123.914062 169.539062 124.851562 167.046875 125.921875 164.613281 L 142.636719 166.730469 L 138.480469 172.136719 Z M 251.25 170.207031 C 252.113281 172.734375 252.824219 175.328125 253.371094 177.992188 L 246.738281 177.152344 C 245.621094 175.832031 243.984375 175.722656 243.984375 175.722656 C 243.984375 175.722656 244.476562 175.417969 243.621094 174.085938 C 242.769531 172.769531 240.714844 172.222656 240.714844 172.222656 C 240.714844 172.222656 240.714844 171.132812 240.246094 170.183594 Z M 244.027344 155.328125 C 245.359375 157.386719 246.585938 159.523438 247.699219 161.726562 L 213.382812 166.414062 L 207.46875 166.273438 C 207.359375 165.878906 207.25 165.507812 207.128906 165.125 Z M 234.386719 143.621094 C 236.003906 145.1875 237.546875 146.824219 238.988281 148.546875 L 205.992188 162.367188 C 205.675781 161.738281 205.316406 161.125 204.933594 160.527344 Z M 209.523438 153.199219 L 203.117188 158.160156 C 202.636719 157.636719 202.132812 157.125 201.609375 156.65625 L 207.195312 151.109375 C 208.015625 151.761719 208.789062 152.460938 209.523438 153.199219 Z M 214.460938 149.386719 L 209.535156 153.199219 C 208.835938 152.417969 208.101562 151.675781 207.324219 150.964844 L 211.554688 146.757812 C 212.570312 147.585938 213.542969 148.460938 214.460938 149.386719 Z M 223.402344 134.976562 C 225.164062 136.085938 226.855469 137.273438 228.496094 138.527344 L 214.59375 149.289062 C 213.699219 148.328125 212.757812 147.421875 211.761719 146.5625 Z M 203.828125 148.808594 L 199.25 154.835938 C 198.648438 154.445312 198.035156 154.082031 197.402344 153.757812 L 201.085938 147.421875 C 202.035156 147.835938 202.941406 148.296875 203.828125 148.808594 Z M 207.523438 143.957031 L 204.101562 148.460938 C 203.238281 147.882812 202.34375 147.347656 201.414062 146.867188 L 204.132812 142.171875 C 205.304688 142.714844 206.429688 143.304688 207.523438 143.957031 Z M 211.71875 129.109375 C 213.535156 129.820312 215.316406 130.59375 217.050781 131.441406 L 207.808594 143.597656 C 206.726562 142.890625 205.597656 142.246094 204.429688 141.65625 Z M 197.3125 146.082031 L 194.648438 152.613281 C 193.96875 152.394531 193.28125 152.210938 192.582031 152.054688 L 194.375 145.441406 C 195.367188 145.605469 196.351562 145.820312 197.3125 146.082031 Z M 199.621094 140.457031 L 197.664062 145.242188 C 196.679688 144.90625 195.6875 144.609375 194.660156 144.382812 L 195.960938 139.554688 C 197.207031 139.792969 198.429688 140.097656 199.621094 140.457031 Z M 199.699219 125.730469 C 201.542969 126.070312 203.359375 126.484375 205.140625 126.964844 L 199.914062 139.726562 C 198.714844 139.304688 197.480469 138.941406 196.210938 138.636719 Z M 190.460938 145.082031 L 189.621094 151.664062 C 189.25 151.644531 188.878906 151.632812 188.503906 151.632812 C 188.167969 151.632812 187.828125 151.644531 187.488281 151.664062 L 187.5 145.167969 C 188.265625 145.113281 189.039062 145.082031 189.816406 145.082031 C 190.035156 145.082031 190.242188 145.082031 190.460938 145.082031 Z M 191.238281 138.964844 L 190.625 143.738281 C 189.785156 143.671875 188.933594 143.632812 188.070312 143.632812 C 187.882812 143.632812 187.6875 143.632812 187.5 143.640625 L 187.511719 138.929688 C 188.011719 138.910156 188.527344 138.898438 189.039062 138.898438 C 189.773438 138.898438 190.503906 138.921875 191.238281 138.964844 Z M 187.523438 124.628906 C 189.378906 124.628906 191.214844 124.707031 193.019531 124.859375 L 191.378906 137.796875 C 190.113281 137.667969 188.820312 137.589844 187.511719 137.582031 Z M 168.964844 170.054688 L 165.039062 169.550781 L 166.921875 172.167969 L 168.964844 172.179688 C 168.941406 171.839844 168.929688 171.503906 168.929688 171.15625 C 168.929688 170.785156 168.941406 170.414062 168.964844 170.054688 Z M 188.503906 154.171875 C 196.144531 154.171875 202.605469 159.183594 204.769531 166.097656 L 191.664062 166.097656 L 184.277344 174.152344 L 182.765625 173.0625 C 182.765625 173.0625 183.074219 172.125 181.707031 171.492188 C 181.390625 171.351562 181.050781 171.285156 180.703125 171.261719 C 181.085938 165.84375 185.609375 161.574219 191.128906 161.574219 C 192.351562 161.574219 193.535156 161.789062 194.625 162.171875 C 193.128906 161.398438 191.433594 160.953125 189.640625 160.953125 C 183.75 160.953125 178.976562 165.683594 178.910156 171.546875 C 178.636719 171.632812 178.472656 171.710938 178.472656 171.710938 C 178.472656 171.710938 178.101562 170.378906 177.738281 169.957031 C 177.609375 169.804688 177.390625 169.5625 177.085938 169.355469 C 178.175781 163.25 183.523438 158.628906 189.9375 158.628906 C 194.167969 158.628906 197.925781 160.636719 200.320312 163.742188 L 200.332031 163.753906 C 197.871094 159.925781 193.578125 157.398438 188.679688 157.398438 C 181.828125 157.398438 176.144531 162.378906 175.0625 168.910156 C 174.910156 168.929688 174.757812 168.972656 174.59375 169.019531 C 172.84375 169.5625 172.265625 172.191406 172.265625 172.191406 C 172.265625 172.191406 172.023438 172.191406 171.511719 172.179688 C 171.488281 171.839844 171.476562 171.503906 171.476562 171.15625 C 171.476562 161.78125 179.09375 154.171875 188.503906 154.171875 " fill-opacity="1" fill-rule="evenodd"/></g><path fill="#ffffff" d="M 132.351562 176.125 C 133.988281 176.324219 134.46875 178.207031 134.097656 179.558594 C 132.765625 178.273438 132.273438 178.304688 132.351562 176.125 Z M 162.21875 183.375 L 162.21875 178.164062 L 163.269531 178.164062 L 163.269531 182.601562 L 164.964844 182.601562 L 164.964844 183.375 Z M 179.640625 173.476562 C 180.570312 174.601562 179.730469 176.101562 178.667969 176.746094 C 178.601562 175.113281 178.265625 174.839844 179.640625 173.476562 Z M 174.703125 172.320312 C 176.132812 172.582031 176.460938 174.273438 176.058594 175.449219 C 174.953125 174.238281 174.515625 174.238281 174.703125 172.320312 Z M 171.25 175.570312 C 172.527344 174.871094 173.847656 175.984375 174.277344 177.140625 C 172.648438 176.898438 172.320312 177.171875 171.25 175.570312 Z M 169.226562 179.625 C 170.253906 178.601562 171.839844 179.285156 172.570312 180.28125 C 170.953125 180.496094 170.703125 180.867188 169.226562 179.625 Z M 156.898438 183.375 L 156.898438 178.164062 L 157.914062 178.164062 L 157.914062 182.601562 L 159.640625 182.601562 L 159.640625 183.375 Z M 240.113281 175.230469 C 238.683594 175.492188 238.355469 177.183594 238.757812 178.351562 C 239.863281 177.140625 240.300781 177.152344 240.113281 175.230469 Z M 243.566406 178.46875 C 242.289062 177.78125 240.96875 178.894531 240.539062 180.050781 C 242.167969 179.800781 242.496094 180.082031 243.566406 178.46875 Z M 236.046875 171.90625 C 235.007812 172.929688 235.675781 174.511719 236.660156 175.265625 C 236.902344 173.640625 237.273438 173.402344 236.046875 171.90625 Z M 245.121094 183.832031 C 243.886719 182.316406 241.6875 183.023438 240.574219 184.246094 C 242.703125 184.769531 242.976562 185.28125 245.121094 183.832031 Z M 233.273438 174.773438 C 232.410156 176.679688 234.148438 178.457031 235.863281 178.949219 C 235.335938 176.648438 235.699219 176.136719 233.273438 174.773438 Z M 210.472656 209.4375 C 212.15625 210.386719 211.839844 212.644531 210.832031 213.941406 C 209.96875 211.945312 209.425781 211.773438 210.472656 209.4375 Z M 199.160156 211.140625 C 200.789062 211.335938 201.28125 213.222656 200.910156 214.5625 C 199.578125 213.277344 199.085938 213.308594 199.160156 211.140625 Z M 195.761719 213.820312 C 196.78125 212.773438 198.363281 213.4375 199.117188 214.421875 C 197.5 214.671875 197.261719 215.03125 195.761719 213.820312 Z M 215.808594 214.015625 C 215.917969 215.46875 214.363281 216.21875 213.128906 216.132812 C 214.015625 214.757812 213.894531 214.332031 215.808594 214.015625 Z M 152.558594 197.371094 C 154.199219 197.566406 154.679688 199.453125 154.320312 200.804688 C 152.984375 199.507812 152.492188 199.542969 152.558594 197.371094 Z M 166.929688 198.503906 C 167.039062 199.953125 165.488281 200.707031 164.253906 200.621094 C 165.136719 199.246094 165.019531 198.832031 166.929688 198.503906 Z M 167.464844 202.34375 C 167.585938 203.792969 166.035156 204.542969 164.789062 204.457031 C 165.6875 203.082031 165.5625 202.65625 167.464844 202.34375 Z M 149.160156 200.054688 C 150.175781 199.007812 151.773438 199.671875 152.527344 200.652344 C 150.898438 200.902344 150.667969 201.261719 149.160156 200.054688 Z M 130.21875 180.628906 C 131.234375 179.582031 132.832031 180.246094 133.585938 181.226562 C 131.957031 181.476562 131.726562 181.835938 130.21875 180.628906 " fill-opacity="1" fill-rule="evenodd"/><path fill="#ffffff" d="M 167.421875 177.53125 L 161.785156 170.261719 L 167.421875 179.035156 L 168.023438 177.769531 L 167.421875 177.53125 " fill-opacity="1" fill-rule="evenodd"/><g clip-path="url(#388d95a3e9)"><path fill="#ead61c" d="M 102.484375 183.070312 C 100 183.070312 97.984375 185.082031 97.984375 187.570312 C 97.984375 190.054688 100 192.070312 102.484375 192.070312 C 104.96875 192.070312 106.984375 190.054688 106.984375 187.570312 C 106.984375 185.082031 104.96875 183.070312 102.484375 183.070312 " fill-opacity="1" fill-rule="nonzero"/></g><g clip-path="url(#3d97fcf558)"><path fill="#ead61c" d="M 272.671875 183.070312 C 270.1875 183.070312 268.171875 185.082031 268.171875 187.570312 C 268.171875 190.054688 270.1875 192.070312 272.671875 192.070312 C 275.15625 192.070312 277.171875 190.054688 277.171875 187.570312 C 277.171875 185.082031 275.15625 183.070312 272.671875 183.070312 " fill-opacity="1" fill-rule="nonzero"/></g><g fill="#1e453e" fill-opacity="1"><g transform="translate(136.150471, 119.93431)"><g><path d="M 12.203125 -7.546875 L 7.796875 -14.640625 L 7.921875 -6.625 L 6.6875 -5.859375 L -0.328125 -9.4375 L 3.984375 -2.46875 L 1.40625 -0.875 L -5.921875 -12.734375 L -3.640625 -14.140625 L 5.34375 -9.515625 L 5.171875 -19.578125 L 7.40625 -20.96875 L 14.78125 -9.140625 Z M 12.203125 -7.546875 "/></g></g></g><g fill="#1e453e" fill-opacity="1"><g transform="translate(155.032879, 109.255047)"><g><path d="M -3.421875 -13.609375 L -0.421875 -14.75 L 4.546875 -1.734375 L 1.546875 -0.59375 Z M -3.421875 -13.609375 "/></g></g></g><g fill="#1e453e" fill-opacity="1"><g transform="translate(164.206023, 105.975883)"><g/></g></g><g fill="#1e453e" fill-opacity="1"><g transform="translate(172.451993, 103.703012)"><g><path d="M 10.53125 -3.921875 L 4.078125 -3.359375 L 3.109375 -0.28125 L -0.171875 0.015625 L 4.78125 -14.421875 L 7.96875 -14.703125 L 15.390625 -1.359375 L 12.03125 -1.0625 Z M 9.3125 -6.28125 L 6.625 -11.40625 L 4.90625 -5.890625 Z M 9.3125 -6.28125 "/></g></g></g><g fill="#1e453e" fill-opacity="1"><g transform="translate(190.201153, 102.408584)"><g><path d="M 11.90625 -5.6875 L 14.828125 -5.3125 L 14.109375 0.296875 C 13.285156 0.765625 12.359375 1.082031 11.328125 1.25 C 10.304688 1.425781 9.289062 1.445312 8.28125 1.3125 C 6.851562 1.125 5.601562 0.65625 4.53125 -0.09375 C 3.46875 -0.851562 2.679688 -1.820312 2.171875 -3 C 1.671875 -4.175781 1.507812 -5.445312 1.6875 -6.8125 C 1.863281 -8.1875 2.347656 -9.367188 3.140625 -10.359375 C 3.929688 -11.359375 4.941406 -12.085938 6.171875 -12.546875 C 7.410156 -13.015625 8.753906 -13.15625 10.203125 -12.96875 C 11.410156 -12.8125 12.484375 -12.460938 13.421875 -11.921875 C 14.359375 -11.390625 15.109375 -10.695312 15.671875 -9.84375 L 13.390625 -8.203125 C 12.535156 -9.367188 11.410156 -10.046875 10.015625 -10.234375 C 9.128906 -10.347656 8.316406 -10.257812 7.578125 -9.96875 C 6.847656 -9.6875 6.25 -9.238281 5.78125 -8.625 C 5.3125 -8.007812 5.023438 -7.265625 4.921875 -6.390625 C 4.804688 -5.535156 4.894531 -4.742188 5.1875 -4.015625 C 5.476562 -3.296875 5.9375 -2.707031 6.5625 -2.25 C 7.195312 -1.789062 7.945312 -1.503906 8.8125 -1.390625 C 9.738281 -1.273438 10.597656 -1.359375 11.390625 -1.640625 Z M 11.90625 -5.6875 "/></g></g></g><g fill="#1e453e" fill-opacity="1"><g transform="translate(207.920714, 105.033378)"><g><path d="M 9.921875 3.546875 L 8.703125 -1.015625 L 8.546875 -1.0625 L 5.90625 -2.015625 L 4.59375 1.640625 L 1.5625 0.5625 L 6.265625 -12.5625 L 11.9375 -10.53125 C 13.101562 -10.113281 14.039062 -9.554688 14.75 -8.859375 C 15.46875 -8.160156 15.929688 -7.375 16.140625 -6.5 C 16.359375 -5.625 16.296875 -4.703125 15.953125 -3.734375 C 15.597656 -2.753906 15.054688 -1.992188 14.328125 -1.453125 C 13.609375 -0.921875 12.75 -0.617188 11.75 -0.546875 L 13.1875 4.71875 Z M 12.875 -4.84375 C 13.132812 -5.570312 13.09375 -6.21875 12.75 -6.78125 C 12.414062 -7.351562 11.796875 -7.800781 10.890625 -8.125 L 8.40625 -9.015625 L 6.765625 -4.4375 L 9.25 -3.546875 C 10.15625 -3.222656 10.921875 -3.175781 11.546875 -3.40625 C 12.171875 -3.632812 12.613281 -4.113281 12.875 -4.84375 Z M 12.875 -4.84375 "/></g></g></g><g fill="#1e453e" fill-opacity="1"><g transform="translate(224.023737, 110.969036)"><g><path d="M 6.96875 4.71875 C 5.75 3.9375 4.816406 2.96875 4.171875 1.8125 C 3.523438 0.65625 3.21875 -0.554688 3.25 -1.828125 C 3.28125 -3.097656 3.660156 -4.304688 4.390625 -5.453125 C 5.128906 -6.617188 6.070312 -7.488281 7.21875 -8.0625 C 8.363281 -8.632812 9.59375 -8.867188 10.90625 -8.765625 C 12.21875 -8.671875 13.484375 -8.234375 14.703125 -7.453125 C 15.921875 -6.679688 16.851562 -5.722656 17.5 -4.578125 C 18.144531 -3.429688 18.453125 -2.21875 18.421875 -0.9375 C 18.390625 0.332031 18.003906 1.550781 17.265625 2.71875 C 16.535156 3.863281 15.597656 4.71875 14.453125 5.28125 C 13.304688 5.851562 12.078125 6.09375 10.765625 6 C 9.453125 5.914062 8.1875 5.488281 6.96875 4.71875 Z M 8.4375 2.390625 C 9.132812 2.828125 9.863281 3.066406 10.625 3.109375 C 11.394531 3.148438 12.117188 2.984375 12.796875 2.609375 C 13.484375 2.242188 14.054688 1.695312 14.515625 0.96875 C 14.984375 0.238281 15.238281 -0.507812 15.28125 -1.28125 C 15.320312 -2.050781 15.164062 -2.773438 14.8125 -3.453125 C 14.457031 -4.140625 13.929688 -4.703125 13.234375 -5.140625 C 12.535156 -5.585938 11.800781 -5.828125 11.03125 -5.859375 C 10.257812 -5.890625 9.535156 -5.71875 8.859375 -5.34375 C 8.191406 -4.976562 7.625 -4.429688 7.15625 -3.703125 C 6.695312 -2.972656 6.441406 -2.222656 6.390625 -1.453125 C 6.335938 -0.679688 6.488281 0.0351562 6.84375 0.703125 C 7.207031 1.378906 7.738281 1.941406 8.4375 2.390625 Z M 8.4375 2.390625 "/></g></g></g><g fill="#1e453e" fill-opacity="1"><g transform="translate(114.977721, 252.248893)"><g><path d="M 5.71875 6.0625 C 4.71875 5.0625 4.023438 3.929688 3.640625 2.671875 C 3.265625 1.421875 3.234375 0.175781 3.546875 -1.0625 C 3.859375 -2.300781 4.5 -3.40625 5.46875 -4.375 C 6.445312 -5.351562 7.554688 -6 8.796875 -6.3125 C 10.035156 -6.625 11.28125 -6.585938 12.53125 -6.203125 C 13.789062 -5.828125 14.925781 -5.132812 15.9375 -4.125 C 16.789062 -3.269531 17.410156 -2.34375 17.796875 -1.34375 C 18.191406 -0.351562 18.335938 0.648438 18.234375 1.671875 L 15.421875 1.578125 C 15.523438 0.117188 15.085938 -1.097656 14.109375 -2.078125 C 13.503906 -2.679688 12.820312 -3.085938 12.0625 -3.296875 C 11.3125 -3.515625 10.5625 -3.515625 9.8125 -3.296875 C 9.070312 -3.085938 8.394531 -2.675781 7.78125 -2.0625 C 7.175781 -1.457031 6.765625 -0.78125 6.546875 -0.03125 C 6.335938 0.707031 6.34375 1.453125 6.5625 2.203125 C 6.78125 2.953125 7.191406 3.628906 7.796875 4.234375 C 8.773438 5.210938 9.988281 5.65625 11.4375 5.5625 L 11.546875 8.359375 C 10.515625 8.472656 9.5 8.332031 8.5 7.9375 C 7.5 7.539062 6.570312 6.914062 5.71875 6.0625 Z M 5.71875 6.0625 "/></g></g></g><g fill="#1e453e" fill-opacity="1"><g transform="translate(129.555468, 266.131369)"><g><path d="M 6.984375 4.6875 C 5.753906 3.914062 4.816406 2.953125 4.171875 1.796875 C 3.523438 0.648438 3.210938 -0.554688 3.234375 -1.828125 C 3.265625 -3.097656 3.644531 -4.3125 4.375 -5.46875 C 5.113281 -6.632812 6.050781 -7.503906 7.1875 -8.078125 C 8.332031 -8.648438 9.5625 -8.890625 10.875 -8.796875 C 12.1875 -8.710938 13.457031 -8.285156 14.6875 -7.515625 C 15.90625 -6.742188 16.835938 -5.78125 17.484375 -4.625 C 18.128906 -3.476562 18.441406 -2.265625 18.421875 -0.984375 C 18.398438 0.285156 18.019531 1.503906 17.28125 2.671875 C 16.550781 3.828125 15.613281 4.6875 14.46875 5.25 C 13.320312 5.820312 12.09375 6.0625 10.78125 5.96875 C 9.46875 5.882812 8.203125 5.457031 6.984375 4.6875 Z M 8.453125 2.359375 C 9.148438 2.796875 9.878906 3.035156 10.640625 3.078125 C 11.398438 3.117188 12.117188 2.953125 12.796875 2.578125 C 13.484375 2.203125 14.054688 1.648438 14.515625 0.921875 C 14.972656 0.191406 15.222656 -0.554688 15.265625 -1.328125 C 15.316406 -2.097656 15.160156 -2.820312 14.796875 -3.5 C 14.441406 -4.1875 13.914062 -4.75 13.21875 -5.1875 C 12.519531 -5.625 11.785156 -5.859375 11.015625 -5.890625 C 10.253906 -5.921875 9.53125 -5.75 8.84375 -5.375 C 8.164062 -5.007812 7.597656 -4.460938 7.140625 -3.734375 C 6.679688 -3.003906 6.425781 -2.25 6.375 -1.46875 C 6.332031 -0.695312 6.492188 0.0195312 6.859375 0.6875 C 7.222656 1.363281 7.753906 1.921875 8.453125 2.359375 Z M 8.453125 2.359375 "/></g></g></g><g fill="#1e453e" fill-opacity="1"><g transform="translate(148.750268, 277.29176)"><g><path d="M 6.40625 -12.484375 L 9.421875 -11.359375 L 5.46875 -0.75 L 12.03125 1.6875 L 11.125 4.140625 L 1.546875 0.578125 Z M 6.40625 -12.484375 "/></g></g></g><g fill="#1e453e" fill-opacity="1"><g transform="translate(165.23052, 283.074331)"><g><path d="M 8.28125 1.46875 C 6.851562 1.257812 5.609375 0.757812 4.546875 -0.03125 C 3.484375 -0.820312 2.707031 -1.804688 2.21875 -2.984375 C 1.726562 -4.171875 1.585938 -5.4375 1.796875 -6.78125 C 1.992188 -8.144531 2.5 -9.316406 3.3125 -10.296875 C 4.125 -11.273438 5.148438 -11.988281 6.390625 -12.4375 C 7.640625 -12.882812 8.976562 -13.003906 10.40625 -12.796875 C 11.84375 -12.578125 13.082031 -12.070312 14.125 -11.28125 C 15.175781 -10.5 15.945312 -9.519531 16.4375 -8.34375 C 16.9375 -7.164062 17.085938 -5.894531 16.890625 -4.53125 C 16.679688 -3.1875 16.164062 -2.019531 15.34375 -1.03125 C 14.53125 -0.0507812 13.507812 0.660156 12.28125 1.109375 C 11.050781 1.566406 9.71875 1.6875 8.28125 1.46875 Z M 8.6875 -1.25 C 9.5 -1.125 10.257812 -1.195312 10.96875 -1.46875 C 11.6875 -1.738281 12.28125 -2.179688 12.75 -2.796875 C 13.21875 -3.421875 13.519531 -4.160156 13.65625 -5.015625 C 13.78125 -5.867188 13.707031 -6.65625 13.4375 -7.375 C 13.164062 -8.101562 12.726562 -8.703125 12.125 -9.171875 C 11.519531 -9.648438 10.8125 -9.953125 10 -10.078125 C 9.1875 -10.191406 8.421875 -10.109375 7.703125 -9.828125 C 6.984375 -9.554688 6.390625 -9.113281 5.921875 -8.5 C 5.453125 -7.882812 5.15625 -7.148438 5.03125 -6.296875 C 4.894531 -5.441406 4.960938 -4.648438 5.234375 -3.921875 C 5.503906 -3.191406 5.941406 -2.59375 6.546875 -2.125 C 7.160156 -1.65625 7.875 -1.363281 8.6875 -1.25 Z M 8.6875 -1.25 "/></g></g></g><g fill="#1e453e" fill-opacity="1"><g transform="translate(187.58936, 285.826586)"><g><path d="M 14.265625 -1.421875 L 13.421875 -9.734375 L 10.03125 -2.484375 L 8.578125 -2.34375 L 3.859375 -8.609375 L 4.671875 -0.46875 L 1.640625 -0.15625 L 0.265625 -14.03125 L 2.9375 -14.296875 L 8.984375 -6.203125 L 13.234375 -15.328125 L 15.875 -15.59375 L 17.296875 -1.71875 Z M 14.265625 -1.421875 "/></g></g></g><g fill="#1e453e" fill-opacity="1"><g transform="translate(212.000463, 282.495196)"><g><path d="M 8.8125 -10.78125 C 9.65625 -10.800781 10.382812 -10.609375 11 -10.203125 C 11.625 -9.796875 12.078125 -9.1875 12.359375 -8.375 C 12.765625 -7.21875 12.628906 -6.171875 11.953125 -5.234375 C 11.273438 -4.304688 10.078125 -3.539062 8.359375 -2.9375 L 1.5625 -0.546875 L -3.046875 -13.703125 L 3.375 -15.953125 C 4.976562 -16.515625 6.316406 -16.640625 7.390625 -16.328125 C 8.460938 -16.023438 9.1875 -15.34375 9.5625 -14.28125 C 9.78125 -13.632812 9.820312 -13.003906 9.6875 -12.390625 C 9.5625 -11.785156 9.269531 -11.25 8.8125 -10.78125 Z M 0.765625 -12.46875 L 1.859375 -9.375 L 4.890625 -10.4375 C 5.648438 -10.695312 6.175781 -11.023438 6.46875 -11.421875 C 6.757812 -11.816406 6.816406 -12.269531 6.640625 -12.78125 C 6.453125 -13.300781 6.117188 -13.617188 5.640625 -13.734375 C 5.171875 -13.859375 4.554688 -13.789062 3.796875 -13.53125 Z M 7.328125 -5.15625 C 8.128906 -5.4375 8.691406 -5.773438 9.015625 -6.171875 C 9.335938 -6.578125 9.398438 -7.054688 9.203125 -7.609375 C 8.828125 -8.703125 7.828125 -8.96875 6.203125 -8.40625 L 2.640625 -7.15625 L 3.765625 -3.90625 Z M 7.328125 -5.15625 "/></g></g></g><g fill="#1e453e" fill-opacity="1"><g transform="translate(230.920076, 275.017001)"><g><path d="M -5.296875 -13 L -2.484375 -14.5625 L 4.265625 -2.359375 L 1.453125 -0.796875 Z M -5.296875 -13 "/></g></g></g><g fill="#1e453e" fill-opacity="1"><g transform="translate(241.117121, 269.300426)"><g><path d="M 6.625 -9.09375 L 1.546875 -5.046875 L 2.4375 -1.953125 L -0.140625 0.109375 L -3.96875 -14.65625 L -1.484375 -16.640625 L 12.078125 -9.640625 L 9.4375 -7.53125 Z M 4.296875 -10.375 L -0.765625 -13.1875 L 0.84375 -7.625 Z M 4.296875 -10.375 "/></g></g></g><g fill="#1e453e" fill-opacity="1"><g transform="translate(256.497063, 256.00637)"><g/></g></g></svg>